<svg width="12" height="13" viewBox="0 0 12 13" fill="none" xmlns="http://www.w3.org/2000/svg">
<path d="M1.8 2.141e-06C0.326733 2.141e-06 0 1.06001 0 1.8V11.01C0 11.71 0.37 12 1 12C1.63 12 2.8 11.8762 2.8 10.2C2.80592 7.18041 2.8 2.50168 2.8 2.34C2.8 2.17832 2.8 1.8 3.01 1.8H3.48C3.7 1.8 3.7 2.03 3.7 2.34L3.7 10.2C3.7 12.07 5.37001 11.9985 5.5 12C6.36 12.01 6.5 11.56 6.5 11V6.3C6.5 6.14 6.54 6 6.68 6H7.23C7.41 6 7.41 6.22867 7.41 6.3C7.41 7.72261 7.4 10.3533 7.4 11C7.4 11.42 7.4 12 8.3 12C8.58911 12 9.09743 12.01 10.2 12.01C11.3026 12.01 12 11.18 12 10.2V1.80001C12 1.12915e-05 10.41 0 10.1 0C9.64 0 9.2 0 9.2 0.800004V9.8C9.2 10.02 9.14 10.2 9 10.2H8.51C8.3 10.2 8.3 9.93 8.3 9.8C8.31188 7.13309 8.3 3.01014 8.3 1.79C8.3 0.264821 6.82 0 6.3 0C5.49 0 5.49 0.713583 5.49 0.800004C5.49 2.47623 5.5 5.19657 5.5 5.47C5.5 5.69587 5.5 6 5.28 6H4.81C4.57 6 4.59919 5.59284 4.6 5.47C4.6 4.01568 4.61 1.3421 4.61 0.800004C4.61 0.257905 4.0401 0 3.85 2.141e-06H1.8Z" fill="#6088F8"/>
</svg>
